#!OML:ASF F:\VICON\USERDATA\INSTALL\rory3\rory3.ASF
:FULLY-SPECIFIED
:DEGREES
561
root 0.721604 17.1418 40.1868 10.6451 -19.5525 -2.9081
lowerback -9.17992 3.26073 2.12683
upperback -4.82915 4.12763 0.335796
thorax 0.252613 2.02136 -0.460983
lowerneck -14.8875 -2.90559 -2.46875
upperneck 41.1312 -5.46805 3.36654
head 17.9978 -2.21806 0.935654
rclavicle -3.18521e-014 -5.56597e-015
rhumerus -37.6882 -12.863 -74.9411
rradius 30.6943
rwrist -12.5711
rhand -6.80514 16.3732
rfingers 7.12502
rthumb 19.0582 -12.713
lclavicle -3.18521e-014 -5.56597e-015
lhumerus -50.6245 32.1651 51.8684
lradius 26.7205
lwrist -2.78845
lhand -4.27447 20.6153
lfingers 7.12502
lthumb 21.4904 49.4432
rfemur 4.07115 25.0403 24.6873
rtibia 14.6644
rfoot -11.6695 -11.3692
rtoes 0.885496
lfemur -33.4228 -13.9912 -7.8135
ltibia 27.385
lfoot -8.01672 15.7567
ltoes -17.4394
562
root 0.700888 17.1577 40.2779 10.555 -21.1861 -2.47474
lowerback -9.43046 3.52619 1.13377
upperback -4.69623 4.55305 0.225364
thorax 0.471483 2.25013 0.0381613
lowerneck -15.0575 -3.02051 -2.4771
upperneck 41.0084 -5.62549 3.32072
head 17.9768 -2.29111 0.879679
rclavicle 4.51676e-014 5.86415e-015
rhumerus -37.2033 -16.4776 -73.4329
rradius 27.6976
rwrist -9.36292
rhand -6.30558 17.977
rfingers 7.12502
rthumb 19.5386 -11.0613
lclavicle 4.51676e-014 5.86415e-015
lhumerus -50.228 32.6405 51.5705
lradius 26.6774
lwrist -2.94698
lhand -4.16804 20.3751
lfingers 7.12502
lthumb 21.5926 49.1913
rfemur 4.15437 27.001 24.2833
rtibia 14.7423
rfoot -11.1947 -12.1898
rtoes 1.01782
lfemur -32.8446 -12.9424 -8.49768
ltibia 27.622
lfoot -8.67257 15.9438
ltoes -16.5822
563
root 0.761107 17.1653 40.3763 10.7291 -20.0531 -3.24227
lowerback -9.32015 3.18115 2.69244
upperback -4.6548 3.96993 0.238102
thorax 0.54967 1.93602 -0.876439
lowerneck -14.7743 -3.11897 -2.59226
upperneck 40.6947 -5.79672 3.47409
head 17.7397 -2.36857 0.93877
rclavicle -2.30963e-014 -8.94531e-015
rhumerus -38.0022 -13.6287 -75.1176
rradius 29.5139
rwrist -12.5406
rhand -7.01723 15.9148
rfingers 7.12502
rthumb 18.8542 -13.1914
lclavicle -2.30963e-014 -8.94531e-015
lhumerus -49.7309 32.5545 51.7062
lradius 26.9036
lwrist -2.55437
lhand -3.99702 20.8634
lfingers 7.12502
lthumb 21.7568 49.6606
rfemur 4.6771 24.7105 24.8612
rtibia 14.4925
rfoot -11.3384 -11.1207
rtoes -0.0361223
lfemur -32.8794 -13.195 -8.29742
ltibia 28.0431
lfoot -8.61688 15.1568
ltoes -17.2226
564
root 0.776594 17.1885 40.5143 10.5234 -20.8318 -2.6466
lowerback -8.42917 3.02384 1.92663
upperback -5.7704 3.85455 0.271241
thorax -1.15039 1.86853 -0.515743
lowerneck -13.5647 -3.13315 -2.93685
upperneck 41.019 -5.78559 3.47443
head 17.6215 -2.44974 1.02334
rclavicle 1.56916e-014 2.83268e-015
rhumerus -40.5794 -11.9132 -75.1365
rradius 30.045
rwrist -13.1457
rhand -7.02036 14.7697
rfingers 7.12502
rthumb 18.8512 -14.3368
lclavicle 1.56916e-014 2.83268e-015
lhumerus -51.6098 31.127 51.0624
lradius 27.4246
lwrist -1.49546
lhand -4.03323 21.1915
lfingers 7.12502
lthumb 21.722 49.9927
rfemur 4.93731 24.7693 24.0359
rtibia 14.659
rfoot -11.6817 -10.6696
rtoes 0.111846
lfemur -32.1381 -13.2103 -9.30261
ltibia 28.0626
lfoot -9.69075 15.4488
ltoes -15.5127
565
root 0.790769 17.2054 40.6069 10.776 -21.3688 -3.21632
lowerback -9.99967 3.29659 2.88984
upperback -4.45764 4.07826 0.0665444
thorax 1.15467 1.99273 -1.10493
lowerneck -15.6694 -3.60505 -2.9921
upperneck 40.2049 -6.64441 4.05733
head 17.7948 -2.68625 1.08997
rclavicle -3.08737e-014 -1.95803e-014
rhumerus -38.5322 -13.8777 -75.2995
rradius 28.5559
rwrist -12.1117
rhand -6.99184 14.5125
rfingers 7.12502
rthumb 18.8787 -14.5914
lclavicle -3.08737e-014 -1.95803e-014
lhumerus -48.8539 32.5675 51.8682
lradius 27.196
lwrist -1.78314
lhand -4.0582 21.1007
lfingers 7.12502
lthumb 21.6981 49.9047
rfemur 5.27357 25.0495 24.4703
rtibia 14.214
rfoot -11.6274 -10.4958
rtoes -0.702955
lfemur -31.8181 -12.7399 -9.03207
ltibia 28.2551
lfoot -10.2751 15.406
ltoes -14.4968
566
root 0.808124 17.226 40.6723 10.7777 -22.0763 -2.84023
lowerback -9.27333 3.14154 2.28315
upperback -5.01135 3.95335 0.0636713
thorax 0.139802 1.92348 -0.845096
lowerneck -15.3142 -3.58788 -3.05671
upperneck 40.3838 -6.55168 3.85375
head 17.7888 -2.70092 1.03191
rclavicle -1.54307e-014 -1.0138e-014
rhumerus -39.2681 -14.0296 -74.8817
rradius 27.4593
rwrist -11.3024
rhand -6.90938 13.7566
rfingers 7.12502
rthumb 18.958 -15.3395
lclavicle -1.54307e-014 -1.0138e-014
lhumerus -49.5702 32.2292 51.4189
lradius 27.6828
lwrist -1.11693
lhand -3.98152 21.4171
lfingers 7.12502
lthumb 21.7717 50.2126
rfemur 5.11935 25.058 23.8262
rtibia 14.3019
rfoot -11.4519 -10.2401
rtoes -2.99593
lfemur -31.5114 -12.4174 -9.63152
ltibia 28.1247
lfoot -10.8261 15.3618
ltoes -12.6658
567
root 0.817953 17.2474 40.8049 10.9037 -23.1878 -3.08169
lowerback -9.59016 3.3311 2.63212
upperback -5.10098 4.16417 0.00850737
thorax 0.253671 2.02069 -1.05937
lowerneck -15.7666 -3.67162 -2.69513
upperneck 40.6455 -6.69388 3.49917
head 18.0304 -2.74523 0.765733
rclavicle 5.58709e-014 1.09332e-015
rhumerus -39.6182 -14.9434 -74.3984
rradius 26.0261
rwrist -9.97918
rhand -6.56844 13.3364
rfingers 7.12502
rthumb 19.2858 -15.7273
lclavicle 5.58709e-014 1.09332e-015
lhumerus -49.7231 31.9835 51.0922
lradius 28.0245
lwrist -0.657578
lhand -3.71728 21.8702
lfingers 7.12502
lthumb 22.0254 50.636
rfemur 5.38483 24.9761 23.7592
rtibia 14.4394
rfoot -11.2572 -9.67009
rtoes -6.27587
lfemur -30.5866 -12.0152 -9.8172
ltibia 27.8949
lfoot -11.5703 15.7921
ltoes -12.728
568
root 0.846196 17.2555 40.8716 10.8987 -23.3511 -3.53473
lowerback -9.19469 3.24105 3.26067
upperback -5.0571 4.00843 0.0833033
thorax 0.112126 1.93121 -1.36831
lowerneck -14.7995 -3.72811 -3.44944
upperneck 39.7422 -6.8165 4.32097
head 17.3515 -2.83012 1.26437
rclavicle 1.06723e-014 8.34896e-015
rhumerus -39.6213 -15.7662 -73.9039
rradius 24.7634
rwrist -8.80868
rhand -6.11199 13.1735
rfingers 7.12502
rthumb 19.7247 -15.8458
lclavicle 1.06723e-014 8.34896e-015
lhumerus -49.4096 31.8799 51.2793
lradius 28.3737
lwrist -0.0637851
lhand -3.61582 22.1727
lfingers 7.12502
lthumb 22.1228 50.927
rfemur 5.60083 24.4175 24.1862
rtibia 14.6524
rfoot -10.4305 -9.83155
rtoes -6.26133
lfemur -30.0543 -11.5736 -9.81963
ltibia 27.7902
lfoot -11.069 15.8824
ltoes -14.9218
569
root 0.855255 17.2776 41.0155 10.1578 -24.6958 -2.03515
lowerback -9.91241 3.35982 2.11388
upperback -4.69638 4.23888 -0.39753
thorax 0.847655 2.07088 -1.14712
lowerneck -15.2897 -3.92836 -3.56142
upperneck 39.7121 -7.06885 4.27455
head 17.4818 -2.94955 1.20238
rclavicle 5.15722e-014 7.35503e-015
rhumerus -39.508 -16.498 -73.6894
rradius 23.9235
rwrist -7.96291
rhand -5.6625 12.4165
rfingers 7.12502
rthumb 20.1568 -16.5578
lclavicle 5.15722e-014 7.35503e-015
lhumerus -48.9171 31.6869 51.6319
lradius 28.9334
lwrist 0.576162
lhand -3.55996 22.1225
lfingers 7.12502
lthumb 22.1765 50.8704
rfemur 6.15574 24.2956 22.2976
rtibia 14.5161
rfoot -8.31769 -10.0094
rtoes -0.861906
lfemur -28.8058 -11.2393 -12.0272
ltibia 27.4939
lfoot -11.1444 16.8057
ltoes -16.7323
570
root 0.860558 17.2867 41.0434 11.0477 -25.5365 -3.8026
lowerback -9.31295 3.54479 3.39492
upperback -4.95982 4.39064 0.0876341
thorax 0.304903 2.12244 -1.38915
lowerneck -14.7135 -3.9728 -3.99347
upperneck 39.1209 -7.11872 4.64633
head 17.0518 -3.0059 1.44108
rclavicle -4.33475e-014 -6.16232e-015
rhumerus -39.5521 -16.4649 -73.771
rradius 23.3228
rwrist -8.06125
rhand -5.63723 10.4864
rfingers 7.12502
rthumb 20.1811 -18.4853
lclavicle -4.33475e-014 -6.16232e-015
lhumerus -48.7837 31.4082 51.8458
lradius 29.4899
lwrist 1.17167
lhand -3.44748 22.4518
lfingers 7.12502
lthumb 22.2845 51.1869
rfemur 6.09202 25.3773 24.0176
rtibia 14.0157
rfoot -6.97795 -11.0585
rtoes -0.95369
lfemur -28.8297 -10.1423 -10.3807
ltibia 27.5881
lfoot -10.9123 17.0412
ltoes -16.4625
571
root 0.888367 17.3155 41.1823 10.3468 -25.8215 -1.60503
lowerback -9.97946 3.23621 1.77688
upperback -5.06277 4.10058 -0.494166
thorax 0.483269 1.99783 -1.08385
lowerneck -14.1025 -3.97846 -4.17851
upperneck 38.8417 -7.09202 4.69015
head 16.7538 -3.03781 1.50531
rclavicle 1.71328e-014 3.18055e-015
rhumerus -39.9119 -17.6641 -72.6526
rradius 21.5475
rwrist -6.09169
rhand -4.77142 11.6095
rfingers 7.12502
rthumb 21.013 -17.2722
lclavicle 1.71328e-014 3.18055e-015
lhumerus -48.8256 31.0559 52.0009
lradius 30.1939
lwrist 1.62217
lhand -3.31685 23.9893
lfingers 7.12502
lthumb 22.4098 52.7094
rfemur 6.07968 23.3951 21.151
rtibia 14.1751
rfoot -6.90051 -10.2334
rtoes -1.95569
lfemur -28.3018 -10.7535 -13.1046
ltibia 27.2702
lfoot -10.8011 17.7633
ltoes -16.451
